<svg width="279" height="185" viewBox="0 0 279 185" fill="none" xmlns="http://www.w3.org/2000/svg">
<path d="M246.044 50.5295V51.7342L239.059 67.395H236.8L243.773 52.2902H234.646V50.5295H246.044ZM250.619 65.5996H250.839C252.075 65.5996 253.079 65.4258 253.851 65.0783C254.623 64.7308 255.218 64.2636 255.635 63.6767C256.052 63.0898 256.338 62.4296 256.492 61.696C256.646 60.9546 256.724 60.194 256.724 59.414V56.8309C256.724 56.0664 256.635 55.3869 256.457 54.7922C256.287 54.1976 256.048 53.6995 255.739 53.298C255.438 52.8964 255.094 52.5914 254.708 52.3829C254.322 52.1744 253.913 52.0701 253.48 52.0701C252.986 52.0701 252.542 52.1705 252.148 52.3713C251.762 52.5644 251.434 52.8385 251.164 53.1937C250.901 53.549 250.7 53.966 250.561 54.4447C250.422 54.9235 250.353 55.4448 250.353 56.0085C250.353 56.5105 250.415 56.997 250.538 57.468C250.662 57.9391 250.851 58.3638 251.106 58.7422C251.361 59.1206 251.677 59.4218 252.056 59.6457C252.442 59.8619 252.893 59.97 253.411 59.97C253.89 59.97 254.338 59.8774 254.755 59.692C255.179 59.499 255.554 59.2403 255.878 58.916C256.21 58.5839 256.473 58.2094 256.666 57.7924C256.867 57.3754 256.982 56.939 257.013 56.4834H258.033C258.033 57.1244 257.905 57.7576 257.65 58.3831C257.403 59.0009 257.056 59.5646 256.608 60.0743C256.16 60.584 255.635 60.9932 255.033 61.3021C254.43 61.6033 253.774 61.7539 253.063 61.7539C252.229 61.7539 251.507 61.5917 250.897 61.2674C250.287 60.9431 249.785 60.5106 249.391 59.97C249.005 59.4295 248.716 58.8271 248.523 58.163C248.337 57.4912 248.245 56.8116 248.245 56.1243C248.245 55.3212 248.357 54.5683 248.581 53.8656C248.805 53.1628 249.137 52.5451 249.577 52.0122C250.017 51.4717 250.561 51.0508 251.21 50.7496C251.866 50.4485 252.623 50.2979 253.48 50.2979C254.446 50.2979 255.268 50.4909 255.948 50.8771C256.627 51.2632 257.179 51.7806 257.604 52.4292C258.036 53.0779 258.353 53.8077 258.554 54.6185C258.755 55.4293 258.855 56.2633 258.855 57.1205V57.8966C258.855 58.7692 258.797 59.6573 258.681 60.5608C258.573 61.4566 258.361 62.3138 258.044 63.1323C257.735 63.9509 257.284 64.6845 256.689 65.3332C256.094 65.9741 255.318 66.4838 254.361 66.8622C253.411 67.2329 252.237 67.4182 250.839 67.4182H250.619V65.5996ZM261.647 54.6648V53.7729C261.647 53.132 261.786 52.5489 262.064 52.0238C262.342 51.4987 262.739 51.0778 263.257 50.7612C263.774 50.4446 264.388 50.2863 265.099 50.2863C265.824 50.2863 266.442 50.4446 266.952 50.7612C267.469 51.0778 267.867 51.4987 268.145 52.0238C268.423 52.5489 268.562 53.132 268.562 53.7729V54.6648C268.562 55.2903 268.423 55.8656 268.145 56.3908C267.875 56.9159 267.481 57.3367 266.963 57.6534C266.454 57.97 265.84 58.1283 265.122 58.1283C264.404 58.1283 263.782 57.97 263.257 57.6534C262.739 57.3367 262.342 56.9159 262.064 56.3908C261.786 55.8656 261.647 55.2903 261.647 54.6648ZM263.257 53.7729V54.6648C263.257 55.0201 263.322 55.356 263.454 55.6726C263.593 55.9892 263.801 56.2479 264.079 56.4487C264.357 56.6417 264.705 56.7383 265.122 56.7383C265.539 56.7383 265.882 56.6417 266.153 56.4487C266.423 56.2479 266.624 55.9892 266.755 55.6726C266.886 55.356 266.952 55.0201 266.952 54.6648V53.7729C266.952 53.41 266.882 53.0702 266.743 52.7536C266.612 52.4292 266.407 52.1705 266.129 51.9775C265.859 51.7767 265.516 51.6763 265.099 51.6763C264.689 51.6763 264.346 51.7767 264.068 51.9775C263.797 52.1705 263.593 52.4292 263.454 52.7536C263.322 53.0702 263.257 53.41 263.257 53.7729ZM269.859 64.1632V63.2597C269.859 62.6265 269.998 62.0473 270.276 61.5222C270.554 60.9971 270.952 60.5762 271.469 60.2596C271.987 59.943 272.601 59.7847 273.311 59.7847C274.037 59.7847 274.655 59.943 275.165 60.2596C275.682 60.5762 276.08 60.9971 276.358 61.5222C276.636 62.0473 276.775 62.6265 276.775 63.2597V64.1632C276.775 64.7965 276.636 65.3756 276.358 65.9008C276.087 66.4259 275.694 66.8467 275.176 67.1634C274.666 67.48 274.053 67.6383 273.334 67.6383C272.616 67.6383 271.998 67.48 271.481 67.1634C270.964 66.8467 270.562 66.4259 270.276 65.9008C269.998 65.3756 269.859 64.7965 269.859 64.1632ZM271.469 63.2597V64.1632C271.469 64.5185 271.535 64.8582 271.666 65.1826C271.805 65.4992 272.014 65.7579 272.292 65.9587C272.57 66.1517 272.917 66.2483 273.334 66.2483C273.751 66.2483 274.095 66.1517 274.365 65.9587C274.643 65.7579 274.848 65.4992 274.979 65.1826C275.11 64.866 275.176 64.5262 275.176 64.1632V63.2597C275.176 62.8968 275.107 62.557 274.968 62.2404C274.836 61.9238 274.632 61.6689 274.354 61.4759C274.083 61.2751 273.736 61.1747 273.311 61.1747C272.902 61.1747 272.558 61.2751 272.28 61.4759C272.01 61.6689 271.805 61.9238 271.666 62.2404C271.535 62.557 271.469 62.8968 271.469 63.2597ZM273.844 52.9273L265.608 66.1093L264.404 65.3448L272.639 52.1628L273.844 52.9273Z" fill="#0088F0"/>
<path d="M236.91 82.8759V82.7543C236.91 82.3418 236.97 81.9593 237.09 81.6068C237.21 81.2507 237.383 80.9423 237.608 80.6814C237.834 80.417 238.107 80.2125 238.428 80.068C238.749 79.9199 239.108 79.8459 239.507 79.8459C239.909 79.8459 240.27 79.9199 240.591 80.068C240.915 80.2125 241.19 80.417 241.416 80.6814C241.645 80.9423 241.819 81.2507 241.939 81.6068C242.059 81.9593 242.119 82.3418 242.119 82.7543V82.8759C242.119 83.2884 242.059 83.6709 241.939 84.0235C241.819 84.376 241.645 84.6845 241.416 84.9489C241.19 85.2098 240.917 85.4142 240.596 85.5623C240.279 85.7068 239.919 85.7791 239.517 85.7791C239.115 85.7791 238.754 85.7068 238.433 85.5623C238.112 85.4142 237.838 85.2098 237.608 84.9489C237.383 84.6845 237.21 84.376 237.09 84.0235C236.97 83.6709 236.91 83.2884 236.91 82.8759ZM237.889 82.7543V82.8759C237.889 83.1615 237.922 83.4312 237.989 83.685C238.056 83.9353 238.157 84.1574 238.291 84.3513C238.428 84.5452 238.599 84.6986 238.803 84.8114C239.008 84.9207 239.246 84.9753 239.517 84.9753C239.785 84.9753 240.02 84.9207 240.221 84.8114C240.425 84.6986 240.594 84.5452 240.728 84.3513C240.862 84.1574 240.963 83.9353 241.03 83.685C241.1 83.4312 241.136 83.1615 241.136 82.8759V82.7543C241.136 82.4723 241.1 82.2061 241.03 81.9558C240.963 81.702 240.861 81.4781 240.723 81.2842C240.589 81.0868 240.42 80.9317 240.215 80.8189C240.014 80.7061 239.778 80.6497 239.507 80.6497C239.239 80.6497 239.003 80.7061 238.798 80.8189C238.597 80.9317 238.428 81.0868 238.291 81.2842C238.157 81.4781 238.056 81.702 237.989 81.9558C237.922 82.2061 237.889 82.4723 237.889 82.7543ZM244.324 81.0516V87.8732H243.341V79.9516H244.24L244.324 81.0516ZM248.179 82.7649V82.8759C248.179 83.2919 248.13 83.678 248.031 84.034C247.932 84.3866 247.788 84.6933 247.598 84.9542C247.411 85.215 247.18 85.4177 246.905 85.5623C246.63 85.7068 246.314 85.7791 245.958 85.7791C245.595 85.7791 245.274 85.7192 244.996 85.5993C244.717 85.4794 244.481 85.3049 244.287 85.0758C244.093 84.8466 243.938 84.5717 243.822 84.2508C243.709 83.93 243.631 83.5687 243.589 83.1668V82.5745C243.631 82.1515 243.711 81.7725 243.827 81.4376C243.943 81.1027 244.097 80.8171 244.287 80.5809C244.481 80.3412 244.716 80.1596 244.991 80.0362C245.266 79.9093 245.583 79.8459 245.942 79.8459C246.302 79.8459 246.621 79.9164 246.9 80.0574C247.178 80.1949 247.412 80.3923 247.603 80.6497C247.793 80.907 247.936 81.2155 248.031 81.5751C248.13 81.9311 248.179 82.3277 248.179 82.7649ZM247.196 82.8759V82.7649C247.196 82.4793 247.166 82.2114 247.106 81.9611C247.046 81.7073 246.952 81.4852 246.825 81.2948C246.702 81.1009 246.543 80.9493 246.35 80.84C246.156 80.7272 245.925 80.6708 245.657 80.6708C245.41 80.6708 245.195 80.7131 245.012 80.7977C244.832 80.8823 244.679 80.9969 244.552 81.1414C244.425 81.2825 244.321 81.4446 244.24 81.628C244.162 81.8077 244.104 81.9946 244.065 82.1885V83.5581C244.136 83.8049 244.234 84.0376 244.361 84.2561C244.488 84.4712 244.657 84.6457 244.869 84.7797C245.08 84.9101 245.347 84.9753 245.667 84.9753C245.932 84.9753 246.159 84.9207 246.35 84.8114C246.543 84.6986 246.702 84.5452 246.825 84.3513C246.952 84.1574 247.046 83.9353 247.106 83.685C247.166 83.4312 247.196 83.1615 247.196 82.8759ZM251.823 79.9516V80.7025H248.729V79.9516H251.823ZM249.776 78.5609H250.755V84.2561C250.755 84.45 250.785 84.5963 250.844 84.695C250.904 84.7938 250.982 84.859 251.077 84.8907C251.172 84.9224 251.275 84.9383 251.384 84.9383C251.465 84.9383 251.55 84.9312 251.638 84.9171C251.729 84.8995 251.798 84.8854 251.844 84.8748L251.849 85.6733C251.772 85.698 251.669 85.7209 251.542 85.7421C251.419 85.7668 251.269 85.7791 251.093 85.7791C250.853 85.7791 250.633 85.7315 250.432 85.6363C250.231 85.5411 250.071 85.3825 249.951 85.1604C249.834 84.9348 249.776 84.6316 249.776 84.2508V78.5609ZM254.033 79.9516V85.6733H253.05V79.9516H254.033ZM252.976 78.4339C252.976 78.2753 253.023 78.1413 253.118 78.0321C253.217 77.9228 253.362 77.8681 253.552 77.8681C253.739 77.8681 253.882 77.9228 253.98 78.0321C254.083 78.1413 254.134 78.2753 254.134 78.4339C254.134 78.5855 254.083 78.716 253.98 78.8253C253.882 78.931 253.739 78.9839 253.552 78.9839C253.362 78.9839 253.217 78.931 253.118 78.8253C253.023 78.716 252.976 78.5855 252.976 78.4339ZM255.345 82.8759V82.7543C255.345 82.3418 255.405 81.9593 255.524 81.6068C255.644 81.2507 255.817 80.9423 256.043 80.6814C256.268 80.417 256.541 80.2125 256.862 80.068C257.183 79.9199 257.543 79.8459 257.941 79.8459C258.343 79.8459 258.704 79.9199 259.025 80.068C259.349 80.2125 259.624 80.417 259.85 80.6814C260.079 80.9423 260.254 81.2507 260.374 81.6068C260.493 81.9593 260.553 82.3418 260.553 82.7543V82.8759C260.553 83.2884 260.493 83.6709 260.374 84.0235C260.254 84.376 260.079 84.6845 259.85 84.9489C259.624 85.2098 259.351 85.4142 259.03 85.5623C258.713 85.7068 258.354 85.7791 257.952 85.7791C257.55 85.7791 257.188 85.7068 256.868 85.5623C256.547 85.4142 256.272 85.2098 256.043 84.9489C255.817 84.6845 255.644 84.376 255.524 84.0235C255.405 83.6709 255.345 83.2884 255.345 82.8759ZM256.323 82.7543V82.8759C256.323 83.1615 256.356 83.4312 256.423 83.685C256.49 83.9353 256.591 84.1574 256.725 84.3513C256.862 84.5452 257.033 84.6986 257.238 84.8114C257.442 84.9207 257.68 84.9753 257.952 84.9753C258.22 84.9753 258.454 84.9207 258.655 84.8114C258.859 84.6986 259.029 84.5452 259.163 84.3513C259.297 84.1574 259.397 83.9353 259.464 83.685C259.535 83.4312 259.57 83.1615 259.57 82.8759V82.7543C259.57 82.4723 259.535 82.2061 259.464 81.9558C259.397 81.702 259.295 81.4781 259.157 81.2842C259.023 81.0868 258.854 80.9317 258.65 80.8189C258.449 80.7061 258.213 80.6497 257.941 80.6497C257.673 80.6497 257.437 80.7061 257.232 80.8189C257.032 80.9317 256.862 81.0868 256.725 81.2842C256.591 81.4781 256.49 81.702 256.423 81.9558C256.356 82.2061 256.323 82.4723 256.323 82.7543ZM262.758 81.1732V85.6733H261.78V79.9516H262.706L262.758 81.1732ZM262.526 82.5957L262.119 82.5798C262.122 82.1885 262.18 81.8271 262.293 81.4958C262.406 81.1608 262.565 80.87 262.769 80.6232C262.974 80.3764 263.217 80.1861 263.499 80.0521C263.784 79.9146 264.1 79.8459 264.445 79.8459C264.727 79.8459 264.981 79.8846 265.207 79.9622C265.433 80.0362 265.625 80.1561 265.783 80.3218C265.945 80.4875 266.069 80.7025 266.153 80.9669C266.238 81.2278 266.28 81.5469 266.28 81.9241V85.6733H265.297V81.9135C265.297 81.6139 265.253 81.3741 265.165 81.1943C265.076 81.011 264.948 80.8788 264.779 80.7977C264.609 80.7131 264.401 80.6708 264.155 80.6708C263.911 80.6708 263.689 80.7219 263.488 80.8242C263.291 80.9264 263.12 81.0674 262.975 81.2472C262.834 81.427 262.723 81.6332 262.642 81.8659C262.565 82.0951 262.526 82.3383 262.526 82.5957ZM273.562 77.9316V85.6733H272.584V79.1531L270.611 79.8723V78.9892L273.409 77.9316H273.562Z" fill="#8794BA"/>
<path d="M245.777 130.218C245.777 131.245 245.538 132.117 245.059 132.836C244.588 133.546 243.947 134.087 243.136 134.457C242.333 134.828 241.426 135.013 240.414 135.013C239.403 135.013 238.491 134.828 237.681 134.457C236.87 134.087 236.229 133.546 235.758 132.836C235.287 132.117 235.051 131.245 235.051 130.218C235.051 129.546 235.179 128.932 235.433 128.376C235.696 127.812 236.063 127.322 236.534 126.905C237.013 126.488 237.576 126.167 238.225 125.944C238.881 125.712 239.603 125.596 240.391 125.596C241.426 125.596 242.349 125.797 243.16 126.198C243.97 126.592 244.607 127.137 245.071 127.832C245.542 128.527 245.777 129.322 245.777 130.218ZM243.623 130.171C243.623 129.546 243.488 128.994 243.217 128.515C242.947 128.029 242.569 127.65 242.082 127.38C241.596 127.11 241.032 126.974 240.391 126.974C239.735 126.974 239.167 127.11 238.688 127.38C238.217 127.65 237.85 128.029 237.588 128.515C237.325 128.994 237.194 129.546 237.194 130.171C237.194 130.82 237.321 131.376 237.576 131.839C237.839 132.295 238.21 132.646 238.688 132.894C239.175 133.133 239.75 133.253 240.414 133.253C241.078 133.253 241.65 133.133 242.129 132.894C242.607 132.646 242.974 132.295 243.229 131.839C243.492 131.376 243.623 130.82 243.623 130.171ZM245.384 122.306C245.384 123.125 245.167 123.862 244.735 124.519C244.302 125.175 243.712 125.693 242.963 126.071C242.214 126.449 241.364 126.639 240.414 126.639C239.449 126.639 238.588 126.449 237.831 126.071C237.082 125.693 236.495 125.175 236.07 124.519C235.646 123.862 235.433 123.125 235.433 122.306C235.433 121.326 235.646 120.492 236.07 119.804C236.503 119.117 237.094 118.592 237.843 118.229C238.592 117.866 239.445 117.685 240.403 117.685C241.368 117.685 242.225 117.866 242.974 118.229C243.723 118.592 244.31 119.117 244.735 119.804C245.167 120.492 245.384 121.326 245.384 122.306ZM243.241 122.341C243.241 121.777 243.121 121.279 242.882 120.847C242.642 120.414 242.31 120.075 241.885 119.827C241.461 119.573 240.966 119.445 240.403 119.445C239.839 119.445 239.345 119.565 238.92 119.804C238.503 120.036 238.175 120.368 237.935 120.8C237.704 121.233 237.588 121.746 237.588 122.341C237.588 122.92 237.704 123.426 237.935 123.859C238.175 124.291 238.507 124.627 238.932 124.866C239.356 125.106 239.851 125.225 240.414 125.225C240.978 125.225 241.468 125.106 241.885 124.866C242.31 124.627 242.642 124.291 242.882 123.859C243.121 123.426 243.241 122.92 243.241 122.341ZM259.388 117.916V119.121L252.403 134.782H250.144L257.118 119.677H247.99V117.916H259.388ZM261.647 122.051V121.16C261.647 120.519 261.786 119.936 262.064 119.41C262.342 118.885 262.739 118.464 263.257 118.148C263.774 117.831 264.388 117.673 265.099 117.673C265.824 117.673 266.442 117.831 266.952 118.148C267.469 118.464 267.867 118.885 268.145 119.41C268.423 119.936 268.562 120.519 268.562 121.16V122.051C268.562 122.677 268.423 123.252 268.145 123.777C267.875 124.303 267.481 124.723 266.963 125.04C266.454 125.357 265.84 125.515 265.122 125.515C264.404 125.515 263.782 125.357 263.257 125.04C262.739 124.723 262.342 124.303 262.064 123.777C261.786 123.252 261.647 122.677 261.647 122.051ZM263.257 121.16V122.051C263.257 122.407 263.322 122.743 263.454 123.059C263.593 123.376 263.801 123.635 264.079 123.835C264.357 124.028 264.705 124.125 265.122 124.125C265.539 124.125 265.882 124.028 266.153 123.835C266.423 123.635 266.624 123.376 266.755 123.059C266.886 122.743 266.952 122.407 266.952 122.051V121.16C266.952 120.797 266.882 120.457 266.743 120.14C266.612 119.816 266.407 119.557 266.129 119.364C265.859 119.163 265.516 119.063 265.099 119.063C264.689 119.063 264.346 119.163 264.068 119.364C263.797 119.557 263.593 119.816 263.454 120.14C263.322 120.457 263.257 120.797 263.257 121.16ZM269.859 131.55V130.646C269.859 130.013 269.998 129.434 270.276 128.909C270.554 128.384 270.952 127.963 271.469 127.646C271.987 127.33 272.601 127.171 273.311 127.171C274.037 127.171 274.655 127.33 275.165 127.646C275.682 127.963 276.08 128.384 276.358 128.909C276.636 129.434 276.775 130.013 276.775 130.646V131.55C276.775 132.183 276.636 132.762 276.358 133.287C276.087 133.813 275.694 134.233 275.176 134.55C274.666 134.867 274.053 135.025 273.334 135.025C272.616 135.025 271.998 134.867 271.481 134.55C270.964 134.233 270.562 133.813 270.276 133.287C269.998 132.762 269.859 132.183 269.859 131.55ZM271.469 130.646V131.55C271.469 131.905 271.535 132.245 271.666 132.569C271.805 132.886 272.014 133.145 272.292 133.345C272.57 133.538 272.917 133.635 273.334 133.635C273.751 133.635 274.095 133.538 274.365 133.345C274.643 133.145 274.848 132.886 274.979 132.569C275.11 132.253 275.176 131.913 275.176 131.55V130.646C275.176 130.283 275.107 129.944 274.968 129.627C274.836 129.31 274.632 129.056 274.354 128.863C274.083 128.662 273.736 128.561 273.311 128.561C272.902 128.561 272.558 128.662 272.28 128.863C272.01 129.056 271.805 129.31 271.666 129.627C271.535 129.944 271.469 130.283 271.469 130.646ZM273.844 120.314L265.608 133.496L264.404 132.731L272.639 119.549L273.844 120.314Z" fill="#EF2A82"/>
<path d="M236.91 150.263V150.141C236.91 149.729 236.97 149.346 237.09 148.993C237.21 148.637 237.383 148.329 237.608 148.068C237.834 147.804 238.107 147.599 238.428 147.455C238.749 147.307 239.108 147.233 239.507 147.233C239.909 147.233 240.27 147.307 240.591 147.455C240.915 147.599 241.19 147.804 241.416 148.068C241.645 148.329 241.819 148.637 241.939 148.993C242.059 149.346 242.119 149.729 242.119 150.141V150.263C242.119 150.675 242.059 151.058 241.939 151.41C241.819 151.763 241.645 152.071 241.416 152.336C241.19 152.596 240.917 152.801 240.596 152.949C240.279 153.093 239.919 153.166 239.517 153.166C239.115 153.166 238.754 153.093 238.433 152.949C238.112 152.801 237.838 152.596 237.608 152.336C237.383 152.071 237.21 151.763 237.09 151.41C236.97 151.058 236.91 150.675 236.91 150.263ZM237.889 150.141V150.263C237.889 150.548 237.922 150.818 237.989 151.072C238.056 151.322 238.157 151.544 238.291 151.738C238.428 151.932 238.599 152.085 238.803 152.198C239.008 152.307 239.246 152.362 239.517 152.362C239.785 152.362 240.02 152.307 240.221 152.198C240.425 152.085 240.594 151.932 240.728 151.738C240.862 151.544 240.963 151.322 241.03 151.072C241.1 150.818 241.136 150.548 241.136 150.263V150.141C241.136 149.859 241.1 149.593 241.03 149.342C240.963 149.089 240.861 148.865 240.723 148.671C240.589 148.473 240.42 148.318 240.215 148.206C240.014 148.093 239.778 148.036 239.507 148.036C239.239 148.036 239.003 148.093 238.798 148.206C238.597 148.318 238.428 148.473 238.291 148.671C238.157 148.865 238.056 149.089 237.989 149.342C237.922 149.593 237.889 149.859 237.889 150.141ZM244.324 148.438V155.26H243.341V147.338H244.24L244.324 148.438ZM248.179 150.152V150.263C248.179 150.679 248.13 151.065 248.031 151.421C247.932 151.773 247.788 152.08 247.598 152.341C247.411 152.602 247.18 152.804 246.905 152.949C246.63 153.093 246.314 153.166 245.958 153.166C245.595 153.166 245.274 153.106 244.996 152.986C244.717 152.866 244.481 152.692 244.287 152.462C244.093 152.233 243.938 151.958 243.822 151.638C243.709 151.317 243.631 150.955 243.589 150.553V149.961C243.631 149.538 243.711 149.159 243.827 148.824C243.943 148.489 244.097 148.204 244.287 147.968C244.481 147.728 244.716 147.546 244.991 147.423C245.266 147.296 245.583 147.233 245.942 147.233C246.302 147.233 246.621 147.303 246.9 147.444C247.178 147.582 247.412 147.779 247.603 148.036C247.793 148.294 247.936 148.602 248.031 148.962C248.13 149.318 248.179 149.714 248.179 150.152ZM247.196 150.263V150.152C247.196 149.866 247.166 149.598 247.106 149.348C247.046 149.094 246.952 148.872 246.825 148.681C246.702 148.488 246.543 148.336 246.35 148.227C246.156 148.114 245.925 148.057 245.657 148.057C245.41 148.057 245.195 148.1 245.012 148.184C244.832 148.269 244.679 148.384 244.552 148.528C244.425 148.669 244.321 148.831 244.24 149.015C244.162 149.194 244.104 149.381 244.065 149.575V150.945C244.136 151.192 244.234 151.424 244.361 151.643C244.488 151.858 244.657 152.032 244.869 152.166C245.08 152.297 245.347 152.362 245.667 152.362C245.932 152.362 246.159 152.307 246.35 152.198C246.543 152.085 246.702 151.932 246.825 151.738C246.952 151.544 247.046 151.322 247.106 151.072C247.166 150.818 247.196 150.548 247.196 150.263ZM251.823 147.338V148.089H248.729V147.338H251.823ZM249.776 145.948H250.755V151.643C250.755 151.837 250.785 151.983 250.844 152.082C250.904 152.18 250.982 152.246 251.077 152.277C251.172 152.309 251.275 152.325 251.384 152.325C251.465 152.325 251.55 152.318 251.638 152.304C251.729 152.286 251.798 152.272 251.844 152.261L251.849 153.06C251.772 153.085 251.669 153.108 251.542 153.129C251.419 153.153 251.269 153.166 251.093 153.166C250.853 153.166 250.633 153.118 250.432 153.023C250.231 152.928 250.071 152.769 249.951 152.547C249.834 152.321 249.776 152.018 249.776 151.638V145.948ZM254.033 147.338V153.06H253.05V147.338H254.033ZM252.976 145.821C252.976 145.662 253.023 145.528 253.118 145.419C253.217 145.309 253.362 145.255 253.552 145.255C253.739 145.255 253.882 145.309 253.98 145.419C254.083 145.528 254.134 145.662 254.134 145.821C254.134 145.972 254.083 146.103 253.98 146.212C253.882 146.318 253.739 146.371 253.552 146.371C253.362 146.371 253.217 146.318 253.118 146.212C253.023 146.103 252.976 145.972 252.976 145.821ZM255.345 150.263V150.141C255.345 149.729 255.405 149.346 255.524 148.993C255.644 148.637 255.817 148.329 256.043 148.068C256.268 147.804 256.541 147.599 256.862 147.455C257.183 147.307 257.543 147.233 257.941 147.233C258.343 147.233 258.704 147.307 259.025 147.455C259.349 147.599 259.624 147.804 259.85 148.068C260.079 148.329 260.254 148.637 260.374 148.993C260.493 149.346 260.553 149.729 260.553 150.141V150.263C260.553 150.675 260.493 151.058 260.374 151.41C260.254 151.763 260.079 152.071 259.85 152.336C259.624 152.596 259.351 152.801 259.03 152.949C258.713 153.093 258.354 153.166 257.952 153.166C257.55 153.166 257.188 153.093 256.868 152.949C256.547 152.801 256.272 152.596 256.043 152.336C255.817 152.071 255.644 151.763 255.524 151.41C255.405 151.058 255.345 150.675 255.345 150.263ZM256.323 150.141V150.263C256.323 150.548 256.356 150.818 256.423 151.072C256.49 151.322 256.591 151.544 256.725 151.738C256.862 151.932 257.033 152.085 257.238 152.198C257.442 152.307 257.68 152.362 257.952 152.362C258.22 152.362 258.454 152.307 258.655 152.198C258.859 152.085 259.029 151.932 259.163 151.738C259.297 151.544 259.397 151.322 259.464 151.072C259.535 150.818 259.57 150.548 259.57 150.263V150.141C259.57 149.859 259.535 149.593 259.464 149.342C259.397 149.089 259.295 148.865 259.157 148.671C259.023 148.473 258.854 148.318 258.65 148.206C258.449 148.093 258.213 148.036 257.941 148.036C257.673 148.036 257.437 148.093 257.232 148.206C257.032 148.318 256.862 148.473 256.725 148.671C256.591 148.865 256.49 149.089 256.423 149.342C256.356 149.593 256.323 149.859 256.323 150.141ZM262.758 148.56V153.06H261.78V147.338H262.706L262.758 148.56ZM262.526 149.982L262.119 149.966C262.122 149.575 262.18 149.214 262.293 148.882C262.406 148.547 262.565 148.257 262.769 148.01C262.974 147.763 263.217 147.573 263.499 147.439C263.784 147.301 264.1 147.233 264.445 147.233C264.727 147.233 264.981 147.271 265.207 147.349C265.433 147.423 265.625 147.543 265.783 147.708C265.945 147.874 266.069 148.089 266.153 148.354C266.238 148.614 266.28 148.934 266.28 149.311V153.06H265.297V149.3C265.297 149.001 265.253 148.761 265.165 148.581C265.076 148.398 264.948 148.265 264.779 148.184C264.609 148.1 264.401 148.057 264.155 148.057C263.911 148.057 263.689 148.109 263.488 148.211C263.291 148.313 263.12 148.454 262.975 148.634C262.834 148.814 262.723 149.02 262.642 149.253C262.565 149.482 262.526 149.725 262.526 149.982ZM275.392 152.256V153.06H270.352V152.357L272.875 149.549C273.185 149.203 273.425 148.911 273.594 148.671C273.767 148.428 273.886 148.211 273.953 148.02C274.024 147.827 274.059 147.629 274.059 147.428C274.059 147.174 274.006 146.945 273.9 146.741C273.798 146.533 273.647 146.367 273.446 146.244C273.245 146.12 273.002 146.059 272.716 146.059C272.374 146.059 272.088 146.126 271.859 146.26C271.634 146.39 271.464 146.573 271.352 146.809C271.239 147.046 271.182 147.317 271.182 147.624H270.204C270.204 147.19 270.299 146.794 270.49 146.434C270.68 146.074 270.962 145.789 271.336 145.577C271.709 145.362 272.17 145.255 272.716 145.255C273.202 145.255 273.618 145.341 273.964 145.514C274.309 145.683 274.574 145.923 274.757 146.233C274.944 146.54 275.037 146.899 275.037 147.312C275.037 147.537 274.999 147.767 274.921 147.999C274.847 148.228 274.743 148.458 274.609 148.687C274.479 148.916 274.325 149.142 274.149 149.364C273.976 149.586 273.791 149.804 273.594 150.019L271.531 152.256H275.392Z" fill="#8794BA"/>
<path d="M105.093 51.537C105.041 50.1603 106.116 48.9965 107.493 49.0065C119.491 49.0931 131.166 53.0571 140.756 60.3418C151.009 68.1305 158.244 79.2333 161.229 91.7585C164.213 104.284 162.763 117.456 157.124 129.032C151.485 140.607 142.007 149.87 130.305 155.24C118.603 160.611 105.4 161.758 92.947 158.486C80.4938 155.214 69.5605 147.725 62.0098 137.296C54.4592 126.866 50.7584 114.141 51.5382 101.289C52.2675 89.2682 56.874 77.8319 64.6312 68.6784C65.5218 67.6274 67.1048 67.5716 68.1148 68.5084C69.1248 69.4452 69.1788 71.0197 68.2928 72.0746C61.3182 80.3788 57.1771 90.7226 56.5177 101.591C55.8079 113.291 59.1769 124.876 66.0507 134.37C72.9246 143.865 82.8779 150.683 94.2148 153.661C105.552 156.64 117.571 155.596 128.224 150.706C138.877 145.817 147.506 137.385 152.639 126.847C157.772 116.309 159.093 104.317 156.376 92.9149C153.659 81.5124 147.072 71.4048 137.738 64.3143C129.067 57.7279 118.525 54.1234 107.681 53.9972C106.303 53.9812 105.145 52.9136 105.093 51.537Z" fill="#EF2A82"/>
<path d="M104.107 27.9947C104.03 26.008 105.578 24.3263 107.567 24.338C123.14 24.4301 138.381 29.0497 151.413 37.6719C165.447 46.9575 176.21 60.4163 182.183 76.1485C188.156 91.8806 189.037 109.091 184.702 125.351C180.367 141.611 171.035 156.099 158.022 166.769C145.01 177.44 128.975 183.754 112.181 184.82C95.3868 185.887 78.682 181.652 64.4245 172.713C50.167 163.774 39.077 150.583 32.72 135.002C26.8172 120.534 25.2722 104.684 28.2322 89.3938C28.6101 87.4418 30.5625 86.2526 32.4956 86.7175C34.4287 87.1825 35.6096 89.1255 35.2403 91.0791C32.6278 104.901 34.0535 119.211 39.3865 132.282C45.1736 146.467 55.2695 158.475 68.249 166.613C81.2285 174.75 96.436 178.606 111.725 177.635C127.013 176.664 141.611 170.916 153.457 161.202C165.303 151.488 173.799 138.299 177.745 123.497C181.692 108.694 180.89 93.0261 175.452 78.7041C170.014 64.3822 160.216 52.1298 147.44 43.6765C135.666 35.8867 121.912 31.6857 107.847 31.5405C105.859 31.52 104.185 29.9814 104.107 27.9947Z" fill="#0088F0"/>
<path d="M99.2218 103.5L98.7001 103.366L98.9574 100.81H101.591V101.413H99.5109L99.3558 102.809C99.4498 102.755 99.5685 102.705 99.7118 102.658C99.8576 102.611 100.024 102.587 100.212 102.587C100.45 102.587 100.663 102.628 100.851 102.711C101.039 102.79 101.198 102.906 101.33 103.056C101.464 103.206 101.566 103.387 101.637 103.599C101.707 103.81 101.742 104.047 101.742 104.308C101.742 104.554 101.708 104.781 101.64 104.988C101.574 105.195 101.475 105.376 101.341 105.531C101.207 105.684 101.037 105.802 100.833 105.887C100.631 105.972 100.392 106.014 100.117 106.014C99.9104 106.014 99.7142 105.986 99.5285 105.929C99.3452 105.871 99.1807 105.782 99.035 105.665C98.8916 105.545 98.7741 105.397 98.6824 105.221C98.5931 105.042 98.5367 104.833 98.5132 104.593H99.1337C99.1619 104.786 99.2183 104.948 99.3029 105.08C99.3875 105.211 99.498 105.311 99.6343 105.379C99.7729 105.445 99.9339 105.478 100.117 105.478C100.272 105.478 100.41 105.451 100.53 105.397C100.65 105.343 100.751 105.265 100.833 105.164C100.915 105.063 100.977 104.941 101.02 104.798C101.064 104.654 101.087 104.493 101.087 104.315C101.087 104.152 101.064 104.002 101.02 103.863C100.975 103.725 100.908 103.604 100.819 103.5C100.732 103.397 100.625 103.317 100.498 103.261C100.371 103.202 100.225 103.172 100.061 103.172C99.8423 103.172 99.6766 103.202 99.5638 103.261C99.4533 103.319 99.3393 103.399 99.2218 103.5ZM103.283 103.5L102.761 103.366L103.019 100.81H105.652V101.413H103.572L103.417 102.809C103.511 102.755 103.63 102.705 103.773 102.658C103.919 102.611 104.086 102.587 104.274 102.587C104.511 102.587 104.724 102.628 104.912 102.711C105.1 102.79 105.26 102.906 105.391 103.056C105.525 103.206 105.627 103.387 105.698 103.599C105.768 103.81 105.804 104.047 105.804 104.308C105.804 104.554 105.77 104.781 105.701 104.988C105.636 105.195 105.536 105.376 105.402 105.531C105.268 105.684 105.099 105.802 104.894 105.887C104.692 105.972 104.453 106.014 104.179 106.014C103.972 106.014 103.775 105.986 103.59 105.929C103.406 105.871 103.242 105.782 103.096 105.665C102.953 105.545 102.835 105.397 102.744 105.221C102.654 105.042 102.598 104.833 102.574 104.593H103.195C103.223 104.786 103.28 104.948 103.364 105.08C103.449 105.211 103.559 105.311 103.696 105.379C103.834 105.445 103.995 105.478 104.179 105.478C104.334 105.478 104.471 105.451 104.591 105.397C104.711 105.343 104.812 105.265 104.894 105.164C104.976 105.063 105.039 104.941 105.081 104.798C105.126 104.654 105.148 104.493 105.148 104.315C105.148 104.152 105.126 104.002 105.081 103.863C105.036 103.725 104.969 103.604 104.88 103.5C104.793 103.397 104.686 103.317 104.559 103.261C104.432 103.202 104.287 103.172 104.122 103.172C103.904 103.172 103.738 103.202 103.625 103.261C103.515 103.319 103.401 103.399 103.283 103.5ZM107.947 103.493V104.029H106.227V103.493H107.947ZM111.018 100.803H111.074V101.357H111.018C110.672 101.357 110.383 101.413 110.151 101.526C109.918 101.637 109.733 101.786 109.597 101.974C109.461 102.159 109.362 102.369 109.301 102.601C109.242 102.834 109.213 103.07 109.213 103.31V104.064C109.213 104.292 109.24 104.494 109.294 104.671C109.348 104.845 109.422 104.992 109.516 105.111C109.61 105.231 109.716 105.322 109.833 105.383C109.953 105.444 110.078 105.474 110.207 105.474C110.357 105.474 110.491 105.446 110.609 105.39C110.726 105.331 110.825 105.25 110.905 105.147C110.987 105.041 111.049 104.916 111.092 104.773C111.134 104.63 111.155 104.472 111.155 104.301C111.155 104.148 111.136 104.001 111.099 103.86C111.061 103.716 111.004 103.59 110.926 103.479C110.849 103.366 110.751 103.278 110.634 103.215C110.518 103.149 110.381 103.116 110.221 103.116C110.04 103.116 109.871 103.161 109.713 103.25C109.558 103.337 109.43 103.452 109.329 103.595C109.23 103.736 109.174 103.89 109.16 104.057L108.814 104.054C108.847 103.791 108.908 103.566 108.998 103.38C109.089 103.192 109.202 103.04 109.336 102.922C109.472 102.802 109.624 102.715 109.791 102.661C109.96 102.605 110.139 102.577 110.327 102.577C110.583 102.577 110.804 102.625 110.99 102.721C111.175 102.818 111.328 102.947 111.448 103.109C111.568 103.269 111.656 103.45 111.712 103.652C111.771 103.852 111.8 104.057 111.8 104.269C111.8 104.511 111.766 104.738 111.698 104.949C111.63 105.161 111.528 105.346 111.391 105.506C111.257 105.666 111.092 105.791 110.894 105.88C110.697 105.969 110.468 106.014 110.207 106.014C109.93 106.014 109.688 105.957 109.481 105.845C109.274 105.729 109.102 105.577 108.966 105.386C108.83 105.196 108.727 104.984 108.659 104.752C108.591 104.519 108.557 104.283 108.557 104.043V103.736C108.557 103.375 108.593 103.02 108.666 102.672C108.739 102.324 108.865 102.009 109.044 101.727C109.225 101.445 109.475 101.221 109.794 101.054C110.114 100.887 110.522 100.803 111.018 100.803ZM116.045 104.216V104.752H112.336V104.368L114.635 100.81H115.167L114.596 101.84L113.077 104.216H116.045ZM115.329 100.81V105.943H114.677V100.81H115.329Z" fill="#8794BA"/>
<path d="M3.87202 4.63405L1.60637 10.8716H0.680363L3.28915 4.02768H3.88612L3.87202 4.63405ZM5.77103 10.8716L3.50068 4.63405L3.48657 4.02768H4.08354L6.70173 10.8716H5.77103ZM5.65351 8.33806V9.08074H1.80849V8.33806H5.65351ZM10.7818 5.78568H11.5715V10.7635C11.5715 11.2116 11.4806 11.594 11.2988 11.9105C11.1171 12.227 10.8633 12.4667 10.5374 12.6296C10.2146 12.7957 9.84168 12.8788 9.41863 12.8788C9.24315 12.8788 9.03632 12.8506 8.79816 12.7942C8.56314 12.7409 8.33124 12.6484 8.10249 12.5168C7.87686 12.3883 7.68727 12.2144 7.53372 11.9951L7.98967 11.478C8.20276 11.735 8.42526 11.9136 8.65715 12.0139C8.89217 12.1141 9.12407 12.1643 9.35282 12.1643C9.62859 12.1643 9.86675 12.1126 10.0673 12.0092C10.2679 11.9058 10.423 11.7522 10.5327 11.5485C10.6455 11.348 10.7019 11.1004 10.7019 10.8058V6.9044L10.7818 5.78568ZM7.2799 8.38507V8.28636C7.2799 7.89778 7.32533 7.54524 7.41621 7.22874C7.51022 6.9091 7.6434 6.63491 7.81575 6.40615C7.99124 6.17739 8.20276 6.0019 8.45032 5.87969C8.69789 5.75434 8.97678 5.69167 9.28702 5.69167C9.60665 5.69167 9.88555 5.74808 10.1237 5.86089C10.365 5.97057 10.5687 6.13195 10.7348 6.34504C10.904 6.555 11.0372 6.80883 11.1343 7.10653C11.2315 7.40423 11.2988 7.7411 11.3364 8.11714V8.54959C11.302 8.92249 11.2346 9.2578 11.1343 9.5555C11.0372 9.8532 10.904 10.107 10.7348 10.317C10.5687 10.5269 10.365 10.6883 10.1237 10.8011C9.88242 10.9108 9.60039 10.9657 9.27762 10.9657C8.97365 10.9657 8.69789 10.9014 8.45032 10.7729C8.2059 10.6445 7.99594 10.4643 7.82046 10.2324C7.64497 10.0005 7.51022 9.72785 7.41621 9.41448C7.32533 9.09798 7.2799 8.75484 7.2799 8.38507ZM8.14949 8.28636V8.38507C8.14949 8.6389 8.17456 8.87706 8.2247 9.09955C8.27797 9.32204 8.35788 9.51789 8.46443 9.68711C8.57411 9.85633 8.71355 9.98951 8.88277 10.0867C9.05199 10.1807 9.25411 10.2277 9.48914 10.2277C9.77744 10.2277 10.0156 10.1666 10.2036 10.0444C10.3916 9.92214 10.5405 9.76075 10.6502 9.5602C10.763 9.35964 10.8507 9.14185 10.9134 8.90683V7.774C10.8789 7.60165 10.8257 7.43556 10.7536 7.27574C10.6846 7.11279 10.5938 6.96864 10.4809 6.8433C10.3713 6.71482 10.235 6.61297 10.072 6.53776C9.90905 6.46255 9.7179 6.42495 9.49854 6.42495C9.26038 6.42495 9.05513 6.47509 8.88277 6.57537C8.71355 6.67251 8.57411 6.80726 8.46443 6.97961C8.35788 7.14883 8.27797 7.34625 8.2247 7.57188C8.17456 7.79437 8.14949 8.03253 8.14949 8.28636ZM15.0029 10.9657C14.6487 10.9657 14.3275 10.9061 14.0392 10.787C13.7541 10.6648 13.5081 10.494 13.3013 10.2747C13.0976 10.0553 12.9409 9.79522 12.8312 9.49439C12.7215 9.19356 12.6667 8.86452 12.6667 8.50728V8.30986C12.6667 7.89621 12.7278 7.52801 12.85 7.20524C12.9722 6.87933 13.1383 6.60357 13.3483 6.37794C13.5582 6.15232 13.7964 5.98153 14.0627 5.86559C14.3291 5.74964 14.6049 5.69167 14.89 5.69167C15.2535 5.69167 15.5669 5.75434 15.8301 5.87969C16.0965 6.00504 16.3143 6.18052 16.4835 6.40615C16.6527 6.62864 16.7781 6.89187 16.8596 7.19584C16.941 7.49667 16.9818 7.82571 16.9818 8.18295V8.57309H13.1837V7.86331H16.1122V7.7975C16.0996 7.57188 16.0526 7.35252 15.9712 7.13943C15.8928 6.92634 15.7675 6.75085 15.5951 6.61297C15.4228 6.47509 15.1877 6.40615 14.89 6.40615C14.6926 6.40615 14.5109 6.44845 14.3448 6.53306C14.1787 6.61454 14.0361 6.73675 13.917 6.8997C13.798 7.06265 13.7055 7.26164 13.6397 7.49667C13.5739 7.7317 13.541 8.00276 13.541 8.30986V8.50728C13.541 8.74857 13.5739 8.97577 13.6397 9.18886C13.7086 9.39881 13.8074 9.5837 13.9358 9.74352C14.0674 9.90334 14.2257 10.0287 14.4106 10.1196C14.5986 10.2104 14.8117 10.2559 15.0499 10.2559C15.357 10.2559 15.6171 10.1932 15.8301 10.0679C16.0432 9.94251 16.2297 9.77485 16.3895 9.5649L16.916 9.98324C16.8063 10.1493 16.6668 10.3076 16.4976 10.458C16.3284 10.6084 16.12 10.7306 15.8724 10.8246C15.628 10.9186 15.3382 10.9657 15.0029 10.9657ZM20.9584 9.52259C20.9584 9.39725 20.9302 9.2813 20.8738 9.17475C20.8205 9.06508 20.7093 8.96637 20.5401 8.87862C20.374 8.78775 20.1233 8.7094 19.788 8.6436C19.5059 8.58406 19.2506 8.51355 19.0218 8.43207C18.7962 8.3506 18.6034 8.25189 18.4436 8.13594C18.2869 8.01999 18.1663 7.88368 18.0817 7.72699C17.9971 7.57031 17.9548 7.38699 17.9548 7.17703C17.9548 6.97648 17.9986 6.78689 18.0864 6.60827C18.1773 6.42965 18.3042 6.2714 18.4671 6.13352C18.6332 5.99564 18.8322 5.88752 19.0641 5.80918C19.296 5.73084 19.5545 5.69167 19.8397 5.69167C20.2471 5.69167 20.5949 5.76374 20.8832 5.90789C21.1715 6.05204 21.3924 6.24476 21.546 6.48606C21.6995 6.72422 21.7763 6.98901 21.7763 7.28045H20.9067C20.9067 7.13943 20.8644 7.00311 20.7798 6.8715C20.6983 6.73675 20.5777 6.62551 20.4179 6.53776C20.2612 6.45002 20.0684 6.40615 19.8397 6.40615C19.5984 6.40615 19.4025 6.44375 19.2521 6.51896C19.1048 6.59104 18.9967 6.68348 18.9278 6.79629C18.862 6.9091 18.8291 7.02818 18.8291 7.15353C18.8291 7.24754 18.8447 7.33215 18.8761 7.40736C18.9106 7.47943 18.9701 7.54681 19.0547 7.60948C19.1393 7.66902 19.2584 7.72543 19.4119 7.7787C19.5655 7.83197 19.7613 7.88525 19.9995 7.93852C20.4163 8.03253 20.7594 8.14534 21.0289 8.27696C21.2984 8.40857 21.499 8.56995 21.6306 8.76111C21.7622 8.95226 21.828 9.18416 21.828 9.45679C21.828 9.67928 21.781 9.88297 21.687 10.0679C21.5961 10.2527 21.4629 10.4126 21.2874 10.5473C21.1151 10.6789 20.9083 10.7823 20.667 10.8575C20.4288 10.9296 20.1609 10.9657 19.8632 10.9657C19.4151 10.9657 19.0359 10.8857 18.7257 10.7259C18.4154 10.5661 18.1804 10.3593 18.0206 10.1055C17.8608 9.85163 17.7809 9.5837 17.7809 9.30167H18.6552C18.6677 9.53983 18.7366 9.72942 18.862 9.87043C18.9873 10.0083 19.1409 10.107 19.3226 10.1666C19.5044 10.223 19.6846 10.2512 19.8632 10.2512C20.1013 10.2512 20.3003 10.2198 20.4602 10.1572C20.6231 10.0945 20.7469 10.0083 20.8315 9.89864C20.9161 9.78896 20.9584 9.66361 20.9584 9.52259Z" fill="#8794BA"/>
</svg>
